<?xml version="1.0" standalone="no"?>
<!DOCTYPE svg PUBLIC "-//W3C//DTD SVG 20010904//EN"
 "http://www.w3.org/TR/2001/REC-SVG-20010904/DTD/svg10.dtd">
<svg version="1.0" xmlns="http://www.w3.org/2000/svg"
 width="1600.000000pt" height="1600.000000pt" viewBox="0 0 1600.000000 1600.000000"
 preserveAspectRatio="xMidYMid meet">

<g transform="translate(0.000000,1600.000000) scale(0.100000,-0.100000)"
fill="#000000" stroke="none">
<path d="M7695 14494 c-627 -34 -1237 -150 -1801 -345 -2138 -737 -3748 -2537
-4239 -4738 -108 -485 -149 -878 -149 -1411 0 -359 8 -507 45 -805 221 -1795
1196 -3426 2684 -4489 872 -624 1898 -1025 2960 -1155 298 -37 446 -45 805
-45 533 0 926 41 1411 149 1044 233 1989 708 2828 1421 162 139 546 523 685
685 713 839 1188 1784 1421 2828 108 485 149 878 149 1411 0 359 -8 507 -45
805 -190 1547 -943 2982 -2114 4032 -1050 942 -2359 1512 -3765 1638 -166 15
-723 27 -875 19z m630 -1004 c1127 -70 2168 -461 3055 -1149 1073 -831 1812
-2064 2039 -3401 195 -1149 31 -2311 -473 -3346 -475 -974 -1193 -1757 -2126
-2318 -173 -104 -484 -262 -669 -340 -1383 -582 -2928 -580 -4313 5 -193 81
-533 257 -713 368 -1246 768 -2126 1977 -2469 3391 -454 1866 98 3836 1454
5190 880 880 2029 1434 3265 1575 297 33 659 43 950 25z"/>
<path d="M7820 11965 c-793 -174 -1569 -542 -2234 -1059 -398 -310 -801 -718
-1096 -1111 -443 -590 -758 -1269 -899 -1940 -51 -240 -91 -588 -91 -780 l0
-70 19 30 c10 17 71 120 137 230 328 553 692 1043 1014 1365 283 283 530 454
775 536 109 36 258 44 339 19 73 -23 136 -79 167 -147 l24 -53 3 -1625 c2
-1175 0 -1636 -8 -1663 -15 -52 -82 -117 -155 -152 -108 -51 -225 -69 -450
-68 -110 0 -236 5 -279 11 -44 7 -80 11 -82 9 -6 -6 157 -212 236 -299 479
-522 1285 -926 2230 -1117 145 -29 362 -64 475 -76 l60 -6 499 500 499 499
499 -249 499 -249 141 70 c491 246 917 559 1354 995 322 321 570 625 775 952
116 184 229 415 229 466 0 6 -73 -62 -162 -149 -245 -240 -441 -397 -698 -558
-135 -85 -359 -196 -480 -238 -84 -29 -106 -33 -190 -31 -197 3 -405 87 -456
185 -22 42 -21 3687 1 3772 45 171 213 468 500 882 106 152 374 515 447 604
15 19 28 38 28 41 0 8 -198 -47 -380 -105 -608 -196 -1158 -474 -1540 -780
-107 -86 -303 -277 -358 -348 l-36 -47 -53 59 c-121 134 -298 209 -529 226
l-89 7 41 -44 c218 -231 401 -580 444 -842 6 -40 10 -629 10 -1622 l0 -1561
-152 -91 c-280 -168 -575 -299 -753 -334 -88 -17 -244 -5 -344 26 -89 28 -149
68 -198 133 -67 89 -65 51 -64 1037 0 490 4 1318 7 1840 l7 950 -89 0 c-74 0
-97 4 -133 24 -167 88 -262 331 -277 711 -9 215 21 317 145 497 145 211 442
490 741 697 95 66 108 76 95 75 -6 0 -80 -16 -165 -34z"/>
</g>
</svg>
